<?xml version="1.0" encoding="UTF-8"?>
<mxfile host="app.diagrams.net" modified="2024-01-01T00:00:00.000Z" agent="5.0" etag="xxx" version="22.1.16" type="device">
  <diagram name="主动学习流程图" id="active-learning-flow">
    <mxGraphModel dx="1422" dy="794" grid="1" gridSize="10" guides="1" tooltips="1" connect="1" arrows="1" fold="1" page="1" pageScale="1" pageWidth="1169" pageHeight="827" math="0" shadow="0">
      <root>
        <mxCell id="0" />
        <mxCell id="1" parent="0" />
        
        <!-- 标题 -->
        <mxCell id="title" value="主动学习流程图" style="text;html=1;strokeColor=none;fillColor=none;align=center;verticalAlign=middle;whiteSpace=wrap;rounded=0;fontSize=20;fontStyle=1;" vertex="1" parent="1">
          <mxGeometry x="450" y="20" width="200" height="30" as="geometry" />
        </mxCell>
        
        <!-- 开始节点 -->
        <mxCell id="start" value="开始" style="ellipse;whiteSpace=wrap;html=1;fillColor=#E8F4FD;strokeColor=#000000;fontSize=12;fontStyle=1;" vertex="1" parent="1">
          <mxGeometry x="520" y="80" width="80" height="40" as="geometry" />
        </mxCell>
        
        <!-- 步骤1：选取样本 -->
        <mxCell id="step1" value="选取少量样本进行标注&#xa;构成初始训练集" style="rounded=1;whiteSpace=wrap;html=1;fillColor=#FFF2CC;strokeColor=#000000;fontSize=11;fontStyle=1;" vertex="1" parent="1">
          <mxGeometry x="480" y="160" width="160" height="50" as="geometry" />
        </mxCell>
        
        <!-- 步骤2：训练模型 -->
        <mxCell id="step2" value="使用训练集训练模型" style="rounded=1;whiteSpace=wrap;html=1;fillColor=#FFF2CC;strokeColor=#000000;fontSize=11;fontStyle=1;" vertex="1" parent="1">
          <mxGeometry x="480" y="240" width="160" height="40" as="geometry" />
        </mxCell>
        
        <!-- 步骤3：预测样本 -->
        <mxCell id="step3" value="模型预测未标注样本" style="rounded=1;whiteSpace=wrap;html=1;fillColor=#FFF2CC;strokeColor=#000000;fontSize=11;fontStyle=1;" vertex="1" parent="1">
          <mxGeometry x="480" y="310" width="160" height="40" as="geometry" />
        </mxCell>
        
        <!-- 步骤4：查询策略 -->
        <mxCell id="step4" value="定义查询策略&#xa;选择需要标注的样本" style="rounded=1;whiteSpace=wrap;html=1;fillColor=#FFF2CC;strokeColor=#000000;fontSize=11;fontStyle=1;" vertex="1" parent="1">
          <mxGeometry x="480" y="380" width="160" height="50" as="geometry" />
        </mxCell>
        
        <!-- 步骤5：人工标注 -->
        <mxCell id="step5" value="人工标注选中的样本" style="rounded=1;whiteSpace=wrap;html=1;fillColor=#FFF2CC;strokeColor=#000000;fontSize=11;fontStyle=1;" vertex="1" parent="1">
          <mxGeometry x="480" y="460" width="160" height="40" as="geometry" />
        </mxCell>
        
        <!-- 步骤6：更新训练集 -->
        <mxCell id="step6" value="更新训练集&#xa;重新训练模型" style="rounded=1;whiteSpace=wrap;html=1;fillColor=#FFF2CC;strokeColor=#000000;fontSize=11;fontStyle=1;" vertex="1" parent="1">
          <mxGeometry x="480" y="530" width="160" height="50" as="geometry" />
        </mxCell>
        
        <!-- 决策节点 -->
        <mxCell id="decision" value="达到停止标准？" style="rhombus;whiteSpace=wrap;html=1;fillColor=#FFE6CC;strokeColor=#000000;fontSize=11;fontStyle=1;" vertex="1" parent="1">
          <mxGeometry x="680" y="540" width="120" height="80" as="geometry" />
        </mxCell>
        
        <!-- 结束节点 -->
        <mxCell id="end" value="模型训练完成&#xa;可以应用" style="rounded=1;whiteSpace=wrap;html=1;fillColor=#E1D5E7;strokeColor=#000000;fontSize=11;fontStyle=1;" vertex="1" parent="1">
          <mxGeometry x="200" y="540" width="120" height="50" as="geometry" />
        </mxCell>
        
        <!-- 连接箭头 -->
        <mxCell id="arrow1" value="" style="endArrow=classic;html=1;rounded=0;strokeWidth=2;" edge="1" parent="1" source="start" target="step1">
          <mxGeometry width="50" height="50" relative="1" as="geometry">
            <mxPoint x="560" y="130" as="sourcePoint" />
            <mxPoint x="610" y="80" as="targetPoint" />
          </mxGeometry>
        </mxCell>
        
        <mxCell id="arrow2" value="" style="endArrow=classic;html=1;rounded=0;strokeWidth=2;" edge="1" parent="1" source="step1" target="step2">
          <mxGeometry width="50" height="50" relative="1" as="geometry">
            <mxPoint x="560" y="220" as="sourcePoint" />
            <mxPoint x="610" y="170" as="targetPoint" />
          </mxGeometry>
        </mxCell>
        
        <mxCell id="arrow3" value="" style="endArrow=classic;html=1;rounded=0;strokeWidth=2;" edge="1" parent="1" source="step2" target="step3">
          <mxGeometry width="50" height="50" relative="1" as="geometry">
            <mxPoint x="560" y="290" as="sourcePoint" />
            <mxPoint x="610" y="240" as="targetPoint" />
          </mxGeometry>
        </mxCell>
        
        <mxCell id="arrow4" value="" style="endArrow=classic;html=1;rounded=0;strokeWidth=2;" edge="1" parent="1" source="step3" target="step4">
          <mxGeometry width="50" height="50" relative="1" as="geometry">
            <mxPoint x="560" y="360" as="sourcePoint" />
            <mxPoint x="610" y="310" as="targetPoint" />
          </mxGeometry>
        </mxCell>
        
        <mxCell id="arrow5" value="" style="endArrow=classic;html=1;rounded=0;strokeWidth=2;" edge="1" parent="1" source="step4" target="step5">
          <mxGeometry width="50" height="50" relative="1" as="geometry">
            <mxPoint x="560" y="440" as="sourcePoint" />
            <mxPoint x="610" y="390" as="targetPoint" />
          </mxGeometry>
        </mxCell>
        
        <mxCell id="arrow6" value="" style="endArrow=classic;html=1;rounded=0;strokeWidth=2;" edge="1" parent="1" source="step5" target="step6">
          <mxGeometry width="50" height="50" relative="1" as="geometry">
            <mxPoint x="560" y="510" as="sourcePoint" />
            <mxPoint x="610" y="460" as="targetPoint" />
          </mxGeometry>
        </mxCell>
        
        <mxCell id="arrow7" value="" style="endArrow=classic;html=1;rounded=0;strokeWidth=2;" edge="1" parent="1" source="step6" target="decision">
          <mxGeometry width="50" height="50" relative="1" as="geometry">
            <mxPoint x="640" y="555" as="sourcePoint" />
            <mxPoint x="680" y="555" as="targetPoint" />
          </mxGeometry>
        </mxCell>
        
        <!-- 循环箭头 -->
        <mxCell id="loop_arrow" value="" style="endArrow=classic;html=1;rounded=0;strokeWidth=2;" edge="1" parent="1" source="decision" target="step5">
          <mxGeometry width="50" height="50" relative="1" as="geometry">
            <mxPoint x="680" y="580" as="sourcePoint" />
            <mxPoint x="680" y="480" as="targetPoint" />
            <Array as="points">
              <mxPoint x="720" y="580" />
              <mxPoint x="720" y="480" />
            </Array>
          </mxGeometry>
        </mxCell>
        
        <!-- 结束箭头 -->
        <mxCell id="end_arrow" value="" style="endArrow=classic;html=1;rounded=0;strokeWidth=2;" edge="1" parent="1" source="decision" target="end">
          <mxGeometry width="50" height="50" relative="1" as="geometry">
            <mxPoint x="680" y="540" as="sourcePoint" />
            <mxPoint x="320" y="565" as="targetPoint" />
          </mxGeometry>
        </mxCell>
        
        <!-- 标签 -->
        <mxCell id="label_no" value="否" style="text;html=1;strokeColor=none;fillColor=none;align=center;verticalAlign=middle;whiteSpace=wrap;rounded=0;fontSize=10;fontStyle=1;" vertex="1" parent="1">
          <mxGeometry x="750" y="520" width="20" height="20" as="geometry" />
        </mxCell>
        
        <mxCell id="label_yes" value="是" style="text;html=1;strokeColor=none;fillColor=none;align=center;verticalAlign=middle;whiteSpace=wrap;rounded=0;fontSize=10;fontStyle=1;" vertex="1" parent="1">
          <mxGeometry x="500" y="570" width="20" height="20" as="geometry" />
        </mxCell>
        
        <!-- 说明框1 -->
        <mxCell id="note1" value="查询策略示例：&#xa;• 不确定性采样&#xa;• 边缘采样&#xa;• 熵采样&#xa;• 委员会查询" style="rounded=1;whiteSpace=wrap;html=1;fillColor=#E1F5FE;strokeColor=#01579B;fontSize=9;" vertex="1" parent="1">
          <mxGeometry x="50" y="300" width="150" height="80" as="geometry" />
        </mxCell>
        
        <!-- 说明框2 -->
        <mxCell id="note2" value="停止准则示例：&#xa;• 达到目标性能&#xa;• 标注预算耗尽&#xa;• 收敛判断&#xa;• 最大迭代次数" style="rounded=1;whiteSpace=wrap;html=1;fillColor=#F3E5F5;strokeColor=#4A148C;fontSize=9;" vertex="1" parent="1">
          <mxGeometry x="850" y="300" width="150" height="80" as="geometry" />
        </mxCell>
        
      </root>
    </mxGraphModel>
  </diagram>
</mxfile>
